<svg width="17" height="17" viewBox="0 0 17 17" fill="none" xmlns="http://www.w3.org/2000/svg">
<path d="M9.8285 8.49886L16.5668 0.466827C16.6797 0.333345 16.5847 0.130554 16.4102 0.130554H14.3618C14.2411 0.130554 14.1256 0.18446 14.046 0.276871L8.48854 6.90221L2.93107 0.276871C2.85406 0.18446 2.73854 0.130554 2.61533 0.130554H0.566891C0.392337 0.130554 0.29736 0.333345 0.410306 0.466827L7.14859 8.49886L0.410306 16.5309C0.385005 16.5606 0.368773 16.597 0.363538 16.6357C0.358302 16.6744 0.364282 16.7138 0.380769 16.7492C0.397256 16.7846 0.423556 16.8146 0.456548 16.8355C0.489539 16.8564 0.527836 16.8674 0.566891 16.8672H2.61533C2.73598 16.8672 2.85149 16.8133 2.93107 16.7208L8.48854 10.0955L14.046 16.7208C14.123 16.8133 14.2385 16.8672 14.3618 16.8672H16.4102C16.5847 16.8672 16.6797 16.6644 16.5668 16.5309L9.8285 8.49886Z" fill="#6A6A6A"/>
</svg>
