<svg width="17" height="16" viewBox="0 0 17 16" fill="none" xmlns="http://www.w3.org/2000/svg">
<path fill-rule="evenodd" clip-rule="evenodd" d="M16.2527 15.4082H10.2223C9.87811 15.4082 9.59875 15.1416 9.59875 14.8131C9.59875 14.4846 9.87811 14.218 10.2223 14.218H16.2527C16.5969 14.218 16.8762 14.4846 16.8762 14.8131C16.8762 15.1416 16.5969 15.4082 16.2527 15.4082Z" fill="#8A8A8E"/>
<mask id="mask0_1938_1312" style="mask-type:alpha" maskUnits="userSpaceOnUse" x="0" y="0" width="15" height="16">
<path fill-rule="evenodd" clip-rule="evenodd" d="M0.663086 0.380493H14.9475V15.4082H0.663086V0.380493Z" fill="white"/>
</mask>
<g mask="url(#mask0_1938_1312)">
<path fill-rule="evenodd" clip-rule="evenodd" d="M9.90046 1.98061L2.07258 11.3236C1.93041 11.4934 1.87803 11.7124 1.93041 11.9226L2.49661 14.2118L5.02331 14.1816C5.26359 14.1792 5.48558 14.0769 5.63275 13.9023C8.30744 10.7086 13.4066 4.61965 13.5512 4.44112C13.6876 4.23006 13.7408 3.93172 13.6693 3.64449C13.5961 3.35012 13.4041 3.10018 13.1272 2.9407C13.0682 2.90182 11.6672 1.86397 11.624 1.83144C11.0969 1.42837 10.3278 1.49819 9.90046 1.98061ZM2.0044 15.4083C1.7159 15.4083 1.46481 15.2194 1.39746 14.9505L0.716525 12.1964C0.576014 11.6259 0.715694 11.0371 1.09898 10.5801L8.93101 1.23159C8.93434 1.22842 8.93683 1.22445 8.94016 1.22127C9.79902 0.241355 11.3521 0.0969455 12.3997 0.89913C12.4413 0.930075 13.8323 1.96157 13.8323 1.96157C14.3378 2.2488 14.7327 2.76217 14.8824 3.36996C15.0312 3.9714 14.9231 4.59188 14.5764 5.11635C14.5506 5.15523 14.5282 5.18856 6.60635 14.6466C6.22472 15.1004 5.6527 15.3646 5.03828 15.3718L2.01272 15.4083H2.0044Z" fill="#8A8A8E"/>
</g>
<path fill-rule="evenodd" clip-rule="evenodd" d="M12.4885 7.27139C12.3555 7.27139 12.2224 7.23093 12.1085 7.14841L7.57559 3.82541C7.30288 3.62546 7.25133 3.25253 7.46085 2.99069C7.6712 2.73044 8.06197 2.68204 8.33551 2.88199L12.8693 6.20419C13.142 6.40415 13.1935 6.77786 12.9832 7.03891C12.861 7.19126 12.6756 7.27139 12.4885 7.27139Z" fill="#8A8A8E"/>
</svg>
